<?xml version="1.0" encoding="UTF-8"?>
<svg id="Layer_1" data-name="Layer 1" xmlns="http://www.w3.org/2000/svg" viewBox="0 0 1000 125">
  <defs>
    <style>
      .cls-1 {
        fill: #31006f;
      }

      .cls-2 {
        fill: #ec008c;
      }

      .cls-3 {
        fill: #9579d3;
      }
    </style>
  </defs>
  <path class="cls-1" d="M376.3,120.61h-23.16V27.72h-34.91V4.47h92.89v23.24h-34.82v92.89Z"/>
  <path class="cls-3" d="M210.08,2.41c-33.19,0-60.09,26.9-60.09,60.09s26.9,60.09,60.09,60.09,60.09-26.9,60.09-60.09S243.27,2.41,210.08,2.41ZM210.08,99.46c-20.41,0-36.96-16.55-36.96-36.96s16.55-36.96,36.96-36.96,36.96,16.55,36.96,36.96-16.55,36.96-36.96,36.96Z"/>
  <path class="cls-1" d="M88.04,88.63c-14.43,14.43-37.83,14.43-52.26,0-14.43-14.43-14.43-37.83,0-52.26,14.43-14.43,37.83-14.43,52.26,0l16.36-16.36C80.94-3.46,42.89-3.46,19.42,20.01c-23.47,23.47-23.47,61.52,0,84.98,23.47,23.47,61.52,23.47,84.98,0l-16.36-16.36Z"/>
  <path class="cls-1" d="M664.35,4.47l-38.15,116.14h-23.24l-37.98-116.14h26.4l23.16,77.51,23.24-77.51h26.56Z"/>
  <path class="cls-2" d="M498.73,120.61h-23.24V4.47h23.24v116.14Z"/>
  <path class="cls-1" d="M852.64,27.72h-34.82s0-23.24,0-23.24h92.89s0,23.24,0,23.24h-34.91v92.89s-23.16,0-23.16,0V27.72Z"/>
  <path class="cls-1" d="M730.21,4.47h23.24s0,116.14,0,116.14h-23.24s0-116.14,0-116.14Z"/>
  <path class="cls-1" d="M998.18,120.61h-23.24V4.47h23.24v116.14Z"/>
</svg>
